<?xml version="1.0" encoding="UTF-8"?>
<svg width="170px" height="40px" viewBox="0 0 170 40" version="1.1" xmlns="http://www.w3.org/2000/svg" xmlns:xlink="http://www.w3.org/1999/xlink">
    <!-- Generator: Sketch 59.1 (86144) - https://sketch.com -->
    <title>SVG Logo</title>
    <desc>Created with Sketch.</desc>
    <g id="Symbols" stroke="none" stroke-width="1" fill="none" fill-rule="evenodd">
        <g id="Topbar" transform="translate(-150.000000, -15.000000)">
            <rect fill="#FFFFFF" opacity="0" x="0" y="0" width="1440" height="70"></rect>
            <g id="Logo-Small" transform="translate(150.000000, 15.000000)" fill-rule="nonzero">
                <g id="CircleLogo">
                    <g id="g20" transform="translate(19.500000, 20.299998) scale(-1, 1) rotate(-180.000000) translate(-19.500000, -20.299998) translate(0.000000, 0.799998)" fill="#E62024">
                        <path d="M19.4999988,0 C8.79499948,0 0.0864999948,8.70899948 0.0864999948,19.4139988 C0.0864999948,20.9274988 0.261499984,22.4359987 0.606999964,23.8969986 C0.922499945,25.2314985 2.26199987,26.0574984 3.59499979,25.7419985 C4.92999971,25.4264985 5.75599966,24.0884986 5.43999968,22.7539986 C5.18299969,21.6664987 5.0524997,20.5429988 5.0524997,19.4139988 C5.0524997,11.4479993 11.5334993,4.9664997 19.4999988,4.9664997 C27.4664984,4.9664997 33.947998,11.4479993 33.947998,19.4139988 C33.947998,27.3804984 27.4664984,33.861998 19.4999988,33.861998 C18.1284989,33.861998 17.016999,34.9734979 17.016999,36.3449978 C17.016999,37.7164978 18.1284989,38.8279977 19.4999988,38.8279977 C30.2049982,38.8279977 38.9144977,30.1189982 38.9144977,19.4139988 C38.9144977,8.70899948 30.2049982,0 19.4999988,0" id="path22"></path>
                    </g>
                    <g id="g24" transform="translate(21.805649, 23.361298) scale(-1, 1) rotate(-180.000000) translate(-21.805649, -23.361298) translate(13.305649, 14.861298)" fill="#E62024">
                        <path d="M16.499999,8.49999949 C16.499999,4.01499976 12.8644992,0.377999977 8.3789995,0.377999977 C3.89349977,0.377999977 0.256999985,4.01499976 0.256999985,8.49999949 C0.256999985,12.9854992 3.89349977,16.621499 8.3789995,16.621499 C12.8644992,16.621499 16.499999,12.9854992 16.499999,8.49999949" id="path26"></path>
                    </g>
                    <g id="g28" transform="translate(13.577649, 3.328100) scale(-1, 1) rotate(-180.000000) translate(-13.577649, -3.328100) translate(11.077649, 0.828100)" fill="#231F20">
                        <path d="M4.9999997,2.49999985 C4.9999997,1.12799993 3.88749977,0.0154999991 2.51549985,0.0154999991 C1.14349993,0.0154999991 0.0309999982,1.12799993 0.0309999982,2.49999985 C0.0309999982,3.87199977 1.14349993,4.9844997 2.51549985,4.9844997 C3.88749977,4.9844997 4.9999997,3.87199977 4.9999997,2.49999985" id="path30"></path>
                    </g>
                    <g id="g32" transform="translate(8.608650, 6.130849) scale(-1, 1) rotate(-180.000000) translate(-8.608650, -6.130849) translate(6.108650, 3.630849)" fill="#231F20">
                        <path d="M4.9999997,2.49999985 C4.9999997,1.12799993 3.88799977,0.015999999 2.51549985,0.015999999 C1.14399993,0.015999999 0.0314999981,1.12799993 0.0314999981,2.49999985 C0.0314999981,3.87199977 1.14399993,4.9844997 2.51549985,4.9844997 C3.88799977,4.9844997 4.9999997,3.87199977 4.9999997,2.49999985" id="path34"></path>
                    </g>
                    <g id="g36" transform="translate(4.847400, 10.462349) scale(-1, 1) rotate(-180.000000) translate(-4.847400, -10.462349) translate(2.347400, 7.962349)" fill="#231F20">
                        <path d="M4.9999997,2.49999985 C4.9999997,1.12849993 3.88749977,0.0154999991 2.51549985,0.0154999991 C1.14349993,0.0154999991 0.0309999982,1.12849993 0.0309999982,2.49999985 C0.0309999982,3.87199977 1.14349993,4.9844997 2.51549985,4.9844997 C3.88749977,4.9844997 4.9999997,3.87199977 4.9999997,2.49999985" id="path38"></path>
                    </g>
                </g>
                <g id="Text" transform="translate(45.999997, 0.400000)" fill="#231F20">
                    <g id="g40" transform="translate(6.282200, 8.459649) scale(-1, 1) rotate(-180.000000) translate(-6.282200, -8.459649) translate(0.282200, 0.459649)">
                        <path d="M0,2.49999985 L1.02749994,3.71649978 C2.55899985,2.33249986 4.02699976,1.6399999 6.06149964,1.6399999 C8.03249952,1.6399999 9.33299944,2.68899984 9.33299944,4.13599975 L9.33299944,4.17749975 C9.33299944,5.54099967 8.59899949,6.31749962 5.51599967,6.96749958 C2.13899987,7.70149954 0.586999965,8.79199948 0.586999965,11.2039993 L0.586999965,11.2459993 C0.586999965,13.5529992 2.62149984,15.2519991 5.41099968,15.2519991 C7.55049955,15.2519991 9.08149946,14.6434991 10.5704994,13.4479992 L9.60549943,12.1689993 C8.24249951,13.2804992 6.87899959,13.7624992 5.36899968,13.7624992 C3.46049979,13.7624992 2.24399987,12.7139992 2.24399987,11.3924993 L2.24399987,11.3504993 C2.24399987,9.96699941 2.99949982,9.19049945 6.22899963,8.49849949 C9.50099943,7.78499954 11.0109993,6.58999961 11.0109993,4.34549974 L11.0109993,4.30349974 C11.0109993,1.78699989 8.91349947,0.150999991 5.99849964,0.150999991 C3.67049978,0.150999991 1.7614999,0.926999945 0,2.49999985" id="path42"></path>
                    </g>
                    <g id="g44" transform="translate(20.667699, 8.417649) scale(-1, 1) rotate(-180.000000) translate(-20.667699, -8.417649) translate(14.667699, 0.417649)">
                        <polygon id="path46" points="-9.99200762e-16 14.9999991 1.6564999 14.9999991 1.6564999 8.47749949 10.1299994 8.47749949 10.1299994 14.9999991 11.7869993 14.9999991 11.7869993 0.318999981 10.1299994 0.318999981 10.1299994 6.92549959 1.6564999 6.92549959 1.6564999 0.318999981 -1.66533454e-15 0.318999981"></polygon>
                    </g>
                    <polygon id="path48" transform="translate(31.579498, 8.758099) scale(-1, 1) rotate(-180.000000) translate(-31.579498, -8.758099) " points="30.7509982 16.098599 32.4079981 16.098599 32.4079981 1.41759992 30.7509982 1.41759992"></polygon>
                    <g id="g50" transform="translate(43.206298, 8.417649) scale(-1, 1) rotate(-180.000000) translate(-43.206298, -8.417649) translate(36.706298, 0.417649)">
                        <polygon id="path52" points="-3.33066921e-15 14.9999991 1.55199991 14.9999991 10.8014994 3.23399981 10.8014994 14.9999991 12.4159993 14.9999991 12.4159993 0.318999981 11.0944993 0.318999981 1.6144999 12.3574993 1.6144999 0.318999981 -5.55111512e-15 0.318999981"></polygon>
                    </g>
                    <g id="g54" transform="translate(58.772197, 8.417649) scale(-1, 1) rotate(-180.000000) translate(-58.772197, -8.417649) translate(53.272197, 0.417649)">
                        <polygon id="path56" points="0 14.9999991 10.6124994 14.9999991 10.6124994 13.4899992 1.6564999 13.4899992 1.6564999 8.47749949 9.66849942 8.47749949 9.66849942 6.96749958 1.6564999 6.96749958 1.6564999 1.82899989 10.7174994 1.82899989 10.7174994 0.318999981 0 0.318999981"></polygon>
                    </g>
                    <g id="g58" transform="translate(72.201896, 8.448449) scale(-1, 1) rotate(-180.000000) translate(-72.201896, -8.448449) translate(66.201896, 0.448449)">
                        <polygon id="path60" points="4.9999997 13.4999992 0.0714999957 13.4999992 0.0714999957 15.0309991 11.6064993 15.0309991 11.6064993 13.4999992 6.6774996 13.4999992 6.6774996 0.349499979 4.9999997 0.349499979"></polygon>
                    </g>
                    <g id="g62" transform="translate(86.409895, 8.417649) scale(-1, 1) rotate(-180.000000) translate(-86.409895, -8.417649) translate(80.909895, 0.417649)">
                        <polygon id="path64" points="0 14.9999991 10.6124994 14.9999991 10.6124994 13.4899992 1.6569999 13.4899992 1.6569999 8.47749949 9.66899942 8.47749949 9.66899942 6.96749958 1.6569999 6.96749958 1.6569999 1.82899989 10.7179994 1.82899989 10.7179994 0.318999981 0 0.318999981"></polygon>
                    </g>
                    <g id="g66" transform="translate(101.309294, 8.799999) scale(-1, 1) rotate(-180.000000) translate(-101.309294, -8.799999) translate(94.309294, 0.799999)">
                        <path d="M0,7.99999952 L0,8.04199952 C0,12.1944993 3.10449981,15.6344991 7.42499956,15.6344991 C10.0884994,15.6344991 11.6819993,14.6904991 13.1504992,13.3059992 L12.0174993,12.0899993 C10.7804994,13.2639992 9.39649944,14.1029992 7.40399956,14.1029992 C4.15299975,14.1029992 1.7194999,11.4604993 1.7194999,8.08399952 L1.7194999,8.04199952 C1.7194999,4.64399972 4.17399975,1.98049988 7.40399956,1.98049988 C9.41699944,1.98049988 10.7384994,2.75649984 12.1434993,4.09849976 L13.2344992,3.02949982 C11.7029993,1.47699991 10.0254994,0.449499973 7.36199956,0.449499973 C3.12499981,0.449499973 0,3.78399977 0,7.99999952" id="path68"></path>
                    </g>
                    <g id="g70" transform="translate(116.435293, 8.417649) scale(-1, 1) rotate(-180.000000) translate(-116.435293, -8.417649) translate(110.435293, 0.417649)">
                        <polygon id="path72" points="-9.99200762e-16 14.9999991 1.6564999 14.9999991 1.6564999 8.47749949 10.1299994 8.47749949 10.1299994 14.9999991 11.7864993 14.9999991 11.7864993 0.318999981 10.1299994 0.318999981 10.1299994 6.92549959 1.6564999 6.92549959 1.6564999 0.318999981 -1.66533454e-15 0.318999981"></polygon>
                    </g>
                    <g id="g74" transform="translate(6.000000, 30.477698) scale(-1, 1) rotate(-180.000000) translate(-6.000000, -30.477698) translate(0.000000, 22.477698)">
                        <path d="M0,2.49999985 L1.02749994,3.71699978 C2.55899985,2.33249986 4.02699976,1.6399999 6.06149964,1.6399999 C8.03249952,1.6399999 9.33299944,2.68899984 9.33299944,4.13599975 L9.33299944,4.17749975 C9.33299944,5.54099967 8.59899949,6.31749962 5.51599967,6.96749958 C2.13899987,7.70149954 0.586999965,8.79199948 0.586999965,11.2039993 L0.586999965,11.2459993 C0.586999965,13.5529992 2.62149984,15.2519991 5.41099968,15.2519991 C7.55049955,15.2519991 9.08149946,14.6434991 10.5704994,13.4479992 L9.60549943,12.1689993 C8.24249951,13.2804992 6.87899959,13.7624992 5.36899968,13.7624992 C3.46049979,13.7624992 2.24399987,12.7139992 2.24399987,11.3924993 L2.24399987,11.3504993 C2.24399987,9.96699941 2.99949982,9.19049945 6.22899963,8.49849949 C9.50099943,7.78499954 11.0109993,6.58999961 11.0109993,4.34549974 L11.0109993,4.30349974 C11.0109993,1.78699989 8.91349947,0.150999991 5.99849964,0.150999991 C3.67049978,0.150999991 1.7614999,0.926999945 0,2.49999985" id="path76"></path>
                    </g>
                    <g id="g78" transform="translate(21.490249, 30.818048) scale(-1, 1) rotate(-180.000000) translate(-21.490249, -30.818048) translate(13.490249, 22.818048)">
                        <path d="M13.4999992,7.99999952 L13.4999992,8.04199952 C13.4999992,11.3764993 11.0669993,14.1029992 7.71149954,14.1029992 C4.35549974,14.1029992 1.96499988,11.4184993 1.96499988,8.08349952 L1.96499988,8.04199952 C1.96499988,4.70699972 4.39749974,1.98049988 7.75349954,1.98049988 C11.1089993,1.98049988 13.4999992,4.66499972 13.4999992,7.99999952 M0.244999985,7.99999952 L0.244999985,8.04199952 C0.244999985,12.0899993 3.2859998,15.6344991 7.75349954,15.6344991 C12.2204993,15.6344991 15.2199991,12.1314993 15.2199991,8.08349952 C15.2409991,8.06299952 15.2409991,8.06299952 15.2199991,8.04199952 C15.2199991,3.99399976 12.1784993,0.449499973 7.71149954,0.449499973 C3.24399981,0.449499973 0.244999985,3.95199976 0.244999985,7.99999952" id="path80"></path>
                    </g>
                    <g id="g82" transform="translate(37.709448, 30.435748) scale(-1, 1) rotate(-180.000000) translate(-37.709448, -30.435748) translate(32.209448, 22.435748)">
                        <polygon id="path84" points="-9.99200762e-16 14.9999991 10.5494994 14.9999991 10.5494994 13.4689992 1.6564999 13.4689992 1.6564999 8.22549951 9.60549943 8.22549951 9.60549943 6.7159996 1.6564999 6.7159996 1.6564999 0.318999981 -1.66533454e-15 0.318999981"></polygon>
                    </g>
                    <g id="g86" transform="translate(50.845447, 30.466498) scale(-1, 1) rotate(-180.000000) translate(-50.845447, -30.466498) translate(44.845447, 22.466498)">
                        <polygon id="path88" points="4.9999997 13.4999992 0.0714999957 13.4999992 0.0714999957 15.0309991 11.6064993 15.0309991 11.6064993 13.4999992 6.6774996 13.4999992 6.6774996 0.349499979 4.9999997 0.349499979"></polygon>
                    </g>
                    <g id="g90" transform="translate(69.421147, 30.435748) scale(-1, 1) rotate(-180.000000) translate(-69.421147, -30.435748) translate(58.421147, 22.435748)">
                        <polygon id="path92" points="0 14.9999991 1.80349989 14.9999991 5.99849964 2.77299983 10.0249994 15.0419991 11.3879993 15.0419991 15.4154991 2.77299983 19.6099988 14.9999991 21.3504987 14.9999991 16.107499 0.213999987 14.7019991 0.213999987 10.6754994 12.1269993 6.6274996 0.213999987 5.24299969 0.213999987"></polygon>
                    </g>
                    <g id="g94" transform="translate(87.399645, 30.747748) scale(-1, 1) rotate(-180.000000) translate(-87.399645, -30.747748) translate(79.399645, 23.247748)">
                        <path d="M10.9999993,5.49999967 L7.66549954,12.9874992 L4.30949974,5.49999967 L10.9999993,5.49999967 Z M6.90999959,14.9169991 L8.4624995,14.9169991 L15.1529991,0.130999992 L13.3699992,0.130999992 L11.6499993,4.01049976 L3.65949978,4.01049976 L1.91849989,0.130999992 L0.219499987,0.130999992 L6.90999959,14.9169991 Z" id="path96"></path>
                    </g>
                    <g id="g98" transform="translate(103.610094, 30.923048) scale(-1, 1) rotate(-180.000000) translate(-103.610094, -30.923048) translate(97.110094, 23.423048)">
                        <path d="M6.49999961,7.49999955 C8.70199948,7.49999955 10.2749994,8.63249949 10.2749994,10.5199994 L10.2749994,10.5619994 C10.2749994,12.3654993 8.89049947,13.4564992 6.52049961,13.4564992 L1.98999988,13.4564992 L1.98999988,7.49999955 L6.49999961,7.49999955 Z M0.33399998,14.9874991 L6.6464996,14.9874991 C8.4499995,14.9874991 9.89749941,14.4419991 10.8204994,13.5189992 C11.5329993,12.806 11.9529993,11.7784993 11.9529993,10.6249994 L11.9529993,10.5829994 C11.9529993,8.14999951 10.2749994,6.7239996 7.96799953,6.30449962 L12.4769993,0.305999982 L10.4429994,0.305999982 L6.18549963,6.01049964 L6.14349963,6.01049964 L1.98999988,6.01049964 L1.98999988,0.305999982 L0.33399998,0.305999982 L0.33399998,14.9874991 Z" id="path100"></path>
                    </g>
                    <g id="g102" transform="translate(118.104743, 30.435748) scale(-1, 1) rotate(-180.000000) translate(-118.104743, -30.435748) translate(112.604743, 22.435748)">
                        <polygon id="path104" points="0 14.9999991 10.6124994 14.9999991 10.6124994 13.4899992 1.6564999 13.4899992 1.6564999 8.47749949 9.66849942 8.47749949 9.66849942 6.96749958 1.6564999 6.96749958 1.6564999 1.82899989 10.7174994 1.82899989 10.7174994 0.318999981 0 0.318999981"></polygon>
                    </g>
                </g>
            </g>
        </g>
    </g>
</svg>